<svg id="Layer_1" data-name="Layer 1" xmlns="http://www.w3.org/2000/svg" viewBox="0 0 362.9 44.03"><defs><style>.cls-1{fill:#fff;}</style></defs><title>logo</title><path class="cls-1" d="M0,0H32.15V7.23H8.64V18.37H30.31v7.11H8.64V36.8H32.15V44H0Z"/><path class="cls-1" d="M64.36,21.32,49.49,0h9.72l10,14.47L79.29,0H89L74.14,21.58,89.64,44H79.92L69.25,28.5,58.58,44H48.86Z"/><path class="cls-1" d="M118.36,7.23H105.08V0h35.2V7.23H127V44h-8.64Z"/><path class="cls-1" d="M159.53,0h32.15V7.23H168.17V18.37h21.67v7.11H168.17V36.8h23.51V44H159.53Z"/><path class="cls-1" d="M247.14,29.44V44H238.5V31.39l-3.81-4.22H220.84V44H212.2V0h27.89l6.8,6.79V20.13l-4.32,4.34Zm-26.3-9.31h15.31l2.23-2.2V9.37l-2.23-2.2H220.84Z"/><path class="cls-1" d="M304.2,29.44V44h-8.64V31.39l-3.82-4.22H277.89V44h-8.64V0h27.89l6.8,6.79V20.13l-4.32,4.34Zm-26.31-9.31H293.2l2.23-2.2V9.37l-2.23-2.2H277.89Z"/><path class="cls-1" d="M338.76,0h7.87L362.9,44h-8.77l-3.62-9.75H334.88L331.26,44h-8.77Zm9.84,27.24-5.9-16.73h-.13l-5.72,16.73Z"/></svg>