<?xml version="1.0" encoding="UTF-8" standalone="no"?>
<!DOCTYPE svg PUBLIC "-//W3C//DTD SVG 1.1//EN" "http://www.w3.org/Graphics/SVG/1.1/DTD/svg11.dtd">
<svg width="100%" height="100%" viewBox="0 0 470 78" version="1.1" xmlns="http://www.w3.org/2000/svg" xmlns:xlink="http://www.w3.org/1999/xlink" xml:space="preserve" xmlns:serif="http://www.serif.com/" style="fill-rule:evenodd;clip-rule:evenodd;stroke-linejoin:round;stroke-miterlimit:2;">
    <g transform="matrix(1,0,0,1,-343,-763)">
        <g transform="matrix(0.971017,0,0,0.886364,22.7099,91.2156)">
            <rect id="Artboard2" x="329.85" y="757.911" width="483.05" height="88" style="fill:none;"/>
            <clipPath id="_clip1">
                <rect id="Artboard21" serif:id="Artboard2" x="329.85" y="757.911" width="483.05" height="88"/>
            </clipPath>
            <g clip-path="url(#_clip1)">
                <g transform="matrix(1.02985,0,0,1.12821,440.044,776.989)">
                    <path d="M0,0L32.15,0L32.15,7.23L8.64,7.23L8.64,18.37L30.31,18.37L30.31,25.48L8.64,25.48L8.64,36.8L32.15,36.8L32.15,44L0,44L0,0Z" style="fill:white;fill-rule:nonzero;"/>
                </g>
                <g transform="matrix(1.02985,0,0,1.12821,440.044,776.989)">
                    <path d="M64.36,21.32L49.49,0L59.21,0L69.21,14.47L79.29,0L89,0L74.14,21.58L89.64,44L79.92,44L69.25,28.5L58.58,44L48.86,44L64.36,21.32Z" style="fill:white;fill-rule:nonzero;"/>
                </g>
                <g transform="matrix(1.02985,0,0,1.12821,440.044,776.989)">
                    <path d="M118.36,7.23L105.08,7.23L105.08,0L140.28,0L140.28,7.23L127,7.23L127,44L118.36,44L118.36,7.23Z" style="fill:white;fill-rule:nonzero;"/>
                </g>
                <g transform="matrix(1.02985,0,0,1.12821,440.044,776.989)">
                    <path d="M159.53,0L191.68,0L191.68,7.23L168.17,7.23L168.17,18.37L189.84,18.37L189.84,25.48L168.17,25.48L168.17,36.8L191.68,36.8L191.68,44L159.53,44L159.53,0Z" style="fill:white;fill-rule:nonzero;"/>
                </g>
                <g transform="matrix(1.02985,0,0,1.12821,440.044,776.989)">
                    <path d="M247.14,29.44L247.14,44L238.5,44L238.5,31.39L234.69,27.17L220.84,27.17L220.84,44L212.2,44L212.2,0L240.09,0L246.89,6.79L246.89,20.13L242.57,24.47L247.14,29.44ZM220.84,20.13L236.15,20.13L238.38,17.93L238.38,9.37L236.15,7.17L220.84,7.17L220.84,20.13Z" style="fill:white;fill-rule:nonzero;"/>
                </g>
                <g transform="matrix(1.02985,0,0,1.12821,440.044,776.989)">
                    <path d="M304.2,29.44L304.2,44L295.56,44L295.56,31.39L291.74,27.17L277.89,27.17L277.89,44L269.25,44L269.25,0L297.14,0L303.94,6.79L303.94,20.13L299.62,24.47L304.2,29.44ZM277.89,20.13L293.2,20.13L295.43,17.93L295.43,9.37L293.2,7.17L277.89,7.17L277.89,20.13Z" style="fill:white;fill-rule:nonzero;"/>
                </g>
                <g transform="matrix(1.02985,0,0,1.12821,440.044,776.989)">
                    <path d="M338.76,0L346.63,0L362.9,44L354.13,44L350.51,34.25L334.88,34.25L331.26,44L322.49,44L338.76,0ZM348.6,27.24L342.7,10.51L342.57,10.51L336.85,27.24L348.6,27.24Z" style="fill:white;fill-rule:nonzero;"/>
                </g>
                <g transform="matrix(0.855351,0,0,0.937043,49.5255,501.956)">
                    <path d="M417.85,282.892L417.85,357.108C417.85,360.914 414.764,364 410.958,364L336.742,364C332.936,364 329.85,360.914 329.85,357.108L329.85,282.892C329.85,279.086 332.936,276 336.742,276L410.958,276C414.764,276 417.85,279.086 417.85,282.892ZM358.117,322.914L356.177,324.854C353.375,327.656 352.298,334.552 352.298,334.552C352.298,334.552 358.885,333.784 361.996,330.673L363.936,328.733L358.117,322.914ZM393.243,288C384.925,288 373.764,293.707 366.27,303.517L360.056,303.517C355.567,303.517 352.994,306.868 351.222,310.412L348.85,315.156L360.056,315.156L371.694,326.794L371.694,338L376.438,335.629C379.982,333.856 383.333,331.283 383.333,326.794L383.333,320.58C393.143,313.086 398.85,301.925 398.85,293.607L398.85,288L393.243,288ZM383.333,299.638C385.475,299.638 387.212,301.375 387.212,303.517C387.212,305.66 385.475,307.397 383.333,307.397C381.19,307.397 379.453,305.66 379.453,303.517C379.453,301.375 381.19,299.638 383.333,299.638ZM395.517,350L336.85,350L336.85,357L395.517,357L395.517,350Z" style="fill:white;"/>
                </g>
            </g>
        </g>
    </g>
</svg>
