<?xml version="1.0" standalone="no"?>
<!DOCTYPE svg PUBLIC "-//W3C//DTD SVG 20010904//EN"
 "http://www.w3.org/TR/2001/REC-SVG-20010904/DTD/svg10.dtd">
<svg version="1.0" xmlns="http://www.w3.org/2000/svg"
 width="610.000000pt" height="610.000000pt" viewBox="0 0 610.000000 610.000000"
 preserveAspectRatio="xMidYMid meet">
<metadata>
Created by potrace 1.14, written by Peter Selinger 2001-2017
</metadata>
<g transform="translate(0.000000,610.000000) scale(0.100000,-0.100000)"
fill="#000000" stroke="none">
<path d="M0 3045 l0 -2985 3050 0 3050 0 0 2985 0 2985 -3050 0 -3050 0 0
-2985z m4115 1956 c22 -10 46 -25 52 -33 7 -8 193 -327 413 -708 371 -643 400
-697 400 -740 0 -52 -25 -99 -73 -134 -28 -21 -36 -21 -698 -24 -656 -2 -670
-2 -709 18 -22 11 -51 37 -64 58 -13 20 -169 289 -346 597 -178 308 -332 572
-342 588 -29 40 -94 71 -153 71 -58 0 -131 -36 -158 -78 -29 -44 -41 -108 -30
-154 6 -23 150 -283 321 -579 170 -296 313 -553 317 -570 13 -63 -26 -136 -90
-171 -27 -15 -95 -17 -695 -17 -645 0 -666 1 -698 20 -18 11 -43 35 -56 55
-66 96 -457 788 -462 818 -16 83 -13 87 439 540 267 267 436 430 462 442 39
20 62 20 1085 20 989 0 1047 -1 1085 -19z m423 -2056 c18 -11 43 -35 56 -55
67 -97 457 -788 462 -818 16 -83 13 -87 -439 -540 -276 -277 -436 -429 -463
-442 -39 -20 -66 -20 -1085 -20 -1004 0 -1046 1 -1086 19 -25 12 -52 35 -67
58 -27 42 -754 1302 -780 1351 -36 69 -12 155 57 206 28 21 36 21 698 24 656
2 670 2 709 -18 22 -11 51 -37 64 -58 13 -20 169 -289 346 -597 178 -308 332
-572 342 -588 29 -40 94 -71 153 -71 58 0 131 36 158 78 29 44 41 108 30 154
-6 23 -150 283 -321 579 -170 296 -313 553 -317 570 -16 80 42 162 130 184 17
4 320 7 675 6 623 -2 646 -3 678 -22z"/>
</g>
</svg>
