<?xml version="1.0" encoding="UTF-8" standalone="no"?><!DOCTYPE svg PUBLIC "-//W3C//DTD SVG 1.1//EN" "http://www.w3.org/Graphics/SVG/1.1/DTD/svg11.dtd"><svg width="100%" height="100%" viewBox="0 0 457 448" version="1.1" xmlns="http://www.w3.org/2000/svg" xmlns:xlink="http://www.w3.org/1999/xlink" xml:space="preserve" xmlns:serif="http://www.serif.com/" style="fill-rule:evenodd;clip-rule:evenodd;stroke-linejoin:round;stroke-miterlimit:2;"><rect id="logo-b" x="0" y="0" width="456.799" height="447.038" style="fill:none;"/><clipPath id="_clip1"><rect x="0" y="0" width="456.799" height="447.038"/></clipPath><g clip-path="url(#_clip1)"><g><path d="M288.526,188.024c-6.548,0 -12.598,-3.493 -15.872,-9.163c-14.645,-25.366 -55.948,-96.904 -75.878,-131.424c-6.091,-10.55 -19.582,-14.165 -30.132,-8.074c-0,0 -0,0 -0,0c-5.067,2.925 -8.764,7.743 -10.278,13.394c-1.514,5.651 -0.721,11.672 2.204,16.738c16.74,28.995 48.644,84.254 67.877,117.567c3.274,5.67 3.274,12.657 -0,18.327c-3.274,5.67 -9.324,9.164 -15.872,9.164c-42.081,-0 -114.155,-0 -141.107,-0c-6.548,-0 -12.598,-3.493 -15.872,-9.164c-11.153,-19.319 -37.081,-64.227 -49.614,-85.934c-4.147,-7.183 -2.953,-16.257 2.913,-22.123c22.157,-22.157 74.968,-74.968 91.964,-91.964c3.437,-3.437 8.099,-5.368 12.96,-5.368c35.904,0 188.669,0 230.419,0c6.547,0 12.598,3.493 15.872,9.164c15.713,27.216 62.555,108.348 87.393,151.369c3.274,5.671 3.274,12.657 -0,18.328c-3.274,5.67 -9.324,9.163 -15.872,9.163c-42.08,0 -114.153,0 -141.105,0Z" style="fill:#0d0d0d;"/><path d="M169.8,259.013c6.548,0 12.598,3.494 15.872,9.164c14.645,25.366 55.948,96.904 75.878,131.424c6.091,10.55 19.581,14.165 30.132,8.074c-0,-0 -0,-0 -0,-0c5.066,-2.926 8.763,-7.744 10.277,-13.394c1.515,-5.651 0.722,-11.672 -2.203,-16.739c-16.74,-28.995 -48.644,-84.253 -67.877,-117.566c-3.274,-5.671 -3.274,-12.657 -0,-18.327c3.274,-5.671 9.324,-9.164 15.872,-9.164c42.081,0 114.154,0 141.107,0c6.547,-0 12.598,3.493 15.871,9.164c11.154,19.318 37.082,64.226 49.614,85.933c4.148,7.184 2.953,16.258 -2.912,22.123c-22.158,22.158 -74.969,74.969 -91.965,91.965c-3.437,3.437 -8.098,5.368 -12.959,5.368c-35.904,-0 -188.669,-0 -230.419,-0c-6.548,-0 -12.598,-3.494 -15.872,-9.164c-15.713,-27.216 -62.555,-108.348 -87.393,-151.37c-3.274,-5.67 -3.274,-12.656 -0,-18.327c3.274,-5.67 9.324,-9.164 15.872,-9.164c42.08,0 114.153,0 141.105,0Z" style="fill:#0d0d0d;"/></g></g></svg>