<?xml version="1.0" encoding="UTF-8" standalone="no"?>
<!DOCTYPE svg PUBLIC "-//W3C//DTD SVG 1.1//EN" "http://www.w3.org/Graphics/SVG/1.1/DTD/svg11.dtd">
<svg width="100%" height="100%" viewBox="0 0 365 359" version="1.1" xmlns="http://www.w3.org/2000/svg" xmlns:xlink="http://www.w3.org/1999/xlink" xml:space="preserve" xmlns:serif="http://www.serif.com/" style="fill-rule:evenodd;clip-rule:evenodd;stroke-linecap:round;stroke-linejoin:round;stroke-miterlimit:1.5;">
    <rect id="Artboard2" x="-0" y="-0" width="364.845" height="358.246" style="fill:none;"/>
    <clipPath id="_clip1">
        <rect id="Artboard21" serif:id="Artboard2" x="-0" y="-0" width="364.845" height="358.246"/>
    </clipPath>
    <g clip-path="url(#_clip1)">
        <g transform="matrix(1,0,0,1,-2115.75,-2638.73)">
            <g transform="matrix(2.61572,0,0,2.61572,-5560.04,-3140.47)">
                <path d="M3022.41,2267.01C3020.4,2267.01 3018.55,2265.94 3017.55,2264.21C3013.06,2256.43 3000.41,2234.52 2994.3,2223.94C2992.43,2220.71 2988.3,2219.6 2985.07,2221.47C2985.07,2221.47 2985.07,2221.47 2985.07,2221.47C2983.51,2222.36 2982.38,2223.84 2981.92,2225.57C2981.45,2227.3 2981.7,2229.15 2982.59,2230.7C2987.72,2239.58 2997.5,2256.51 3003.39,2266.72C3004.39,2268.46 3004.39,2270.6 3003.39,2272.33C3002.39,2274.07 3000.53,2275.14 2998.53,2275.14C2985.63,2275.14 2963.55,2275.14 2955.3,2275.14C2953.29,2275.14 2951.44,2274.07 2950.43,2272.33C2947.02,2266.41 2939.07,2252.66 2935.23,2246.01C2933.96,2243.8 2934.33,2241.03 2936.12,2239.23C2942.91,2232.44 2959.09,2216.26 2964.3,2211.05C2965.35,2210 2966.78,2209.41 2968.27,2209.41C2979.27,2209.41 3026.07,2209.41 3038.86,2209.41C3040.87,2209.41 3042.72,2210.48 3043.73,2212.22C3048.54,2220.55 3062.89,2245.41 3070.5,2258.59C3071.51,2260.33 3071.51,2262.47 3070.5,2264.21C3069.5,2265.94 3067.64,2267.01 3065.64,2267.01C3052.75,2267.01 3030.67,2267.01 3022.41,2267.01Z" style="fill:url(#_Linear2);stroke:rgb(235,235,235);stroke-width:2.12px;"/>
            </g>
            <g transform="matrix(-2.61572,-3.20333e-16,3.20333e-16,-2.61572,10156.4,8776.17)">
                <path d="M3022.41,2267.01C3020.4,2267.01 3018.55,2265.94 3017.55,2264.21C3013.06,2256.43 3000.41,2234.52 2994.3,2223.94C2992.43,2220.71 2988.3,2219.6 2985.07,2221.47C2985.07,2221.47 2985.07,2221.47 2985.07,2221.47C2983.51,2222.36 2982.38,2223.84 2981.92,2225.57C2981.45,2227.3 2981.7,2229.15 2982.59,2230.7C2987.72,2239.58 2997.5,2256.51 3003.39,2266.72C3004.39,2268.46 3004.39,2270.6 3003.39,2272.33C3002.39,2274.07 3000.53,2275.14 2998.53,2275.14C2985.63,2275.14 2963.55,2275.14 2955.3,2275.14C2953.29,2275.14 2951.44,2274.07 2950.43,2272.33C2947.02,2266.41 2939.07,2252.66 2935.23,2246.01C2933.96,2243.8 2934.33,2241.03 2936.12,2239.23C2942.91,2232.44 2959.09,2216.26 2964.3,2211.05C2965.35,2210 2966.78,2209.41 2968.27,2209.41C2979.27,2209.41 3026.07,2209.41 3038.86,2209.41C3040.87,2209.41 3042.72,2210.48 3043.73,2212.22C3048.54,2220.55 3062.89,2245.41 3070.5,2258.59C3071.51,2260.33 3071.51,2262.47 3070.5,2264.21C3069.5,2265.94 3067.64,2267.01 3065.64,2267.01C3052.75,2267.01 3030.67,2267.01 3022.41,2267.01Z" style="fill:url(#_Linear3);stroke:rgb(235,235,235);stroke-width:2.12px;"/>
            </g>
        </g>
    </g>
    <defs>
        <linearGradient id="_Linear2" x1="0" y1="0" x2="1" y2="0" gradientUnits="userSpaceOnUse" gradientTransform="matrix(2.93763,-52.6849,52.6849,2.93763,2990.25,2267.93)"><stop offset="0" style="stop-color:white;stop-opacity:1"/><stop offset="1" style="stop-color:rgb(194,194,194);stop-opacity:1"/></linearGradient>
        <linearGradient id="_Linear3" x1="0" y1="0" x2="1" y2="0" gradientUnits="userSpaceOnUse" gradientTransform="matrix(-1.01197e-14,-55.089,55.089,-1.01197e-14,2996.02,2267.24)"><stop offset="0" style="stop-color:white;stop-opacity:1"/><stop offset="1" style="stop-color:rgb(194,194,194);stop-opacity:1"/></linearGradient>
    </defs>
</svg>
