<?xml version="1.0" encoding="UTF-8" standalone="no"?><!DOCTYPE svg PUBLIC "-//W3C//DTD SVG 1.1//EN" "http://www.w3.org/Graphics/SVG/1.1/DTD/svg11.dtd"><svg width="100%" height="100%" viewBox="0 0 494 494" version="1.1" xmlns="http://www.w3.org/2000/svg" xmlns:xlink="http://www.w3.org/1999/xlink" xml:space="preserve" xmlns:serif="http://www.serif.com/" style="fill-rule:evenodd;clip-rule:evenodd;stroke-linejoin:round;stroke-miterlimit:2;"><rect id="logo-3d-2" x="0" y="0" width="493.565" height="493.034" style="fill:none;"/><clipPath id="_clip1"><rect x="0" y="0" width="493.565" height="493.034"/></clipPath><g clip-path="url(#_clip1)"><path d="M162.069,305.49c6.547,-0 12.598,3.493 15.871,9.163c14.645,25.366 54.242,73.196 74.172,107.716c6.091,10.55 -0.652,-2 9.899,-8.091c-0,0 -0,11.986 -0,11.986c5.066,-2.925 5.239,5.938 6.753,0.287c1.514,-5.651 26.185,2.534 23.26,-2.532c-16.74,-28.995 -48.644,-84.254 -67.877,-117.567c-3.274,-5.67 -3.274,-12.657 0,-18.327c3.274,-5.671 44.519,-50.862 51.066,-50.862c42.081,0 78.961,41.698 105.913,41.698c6.548,0 12.598,3.493 15.872,9.164c11.153,19.319 37.081,64.227 49.614,85.934c4.147,7.183 2.953,16.257 -2.913,22.123c-22.157,22.157 -74.968,74.968 -91.964,91.964c-3.437,3.437 -8.099,5.368 -12.96,5.368c-35.904,-0 -188.669,-0 -230.419,-0c-6.547,-0 -12.598,-3.493 -15.872,-9.164c-15.713,-27.216 -62.555,-108.348 -87.393,-151.369c-3.274,-5.671 -3.274,-12.657 0,-18.328c3.274,-5.67 42.737,-49.227 49.284,-49.227c42.081,0 80.742,40.064 107.694,40.064Z"/><g><path d="M288.294,227.001c-6.548,-0 -12.598,-3.494 -15.872,-9.164c-14.645,-25.366 -55.948,-96.904 -75.878,-131.424c-6.091,-10.55 -19.581,-14.165 -30.132,-8.074c0,0 0,0 0,0c-5.066,2.926 -8.763,7.743 -10.277,13.394c-1.515,5.651 -0.722,11.672 2.203,16.739c16.74,28.995 48.281,51.027 67.514,84.339c3.273,5.671 39.433,10.783 36.159,16.454c-3.274,5.67 -45.12,44.264 -51.668,44.264c-42.08,-0 -114.154,-0 -141.106,-0c-6.548,-0 -12.599,-3.493 -15.872,-9.164c-11.154,-19.318 -37.082,-64.226 -49.614,-85.933c-4.148,-7.184 -2.953,-16.258 2.912,-22.123c22.158,-22.158 74.969,-74.969 91.965,-91.965c3.437,-3.437 66.99,-23.773 71.851,-23.773c35.904,-0 129.777,18.405 171.527,18.405c6.548,0 12.598,3.493 15.872,9.164c15.713,27.216 68.419,89.207 93.258,132.228c3.274,5.67 35.03,-6.017 31.756,-0.347c-3.274,5.671 -46.945,46.98 -53.493,46.98c-42.08,-0 -114.153,-0 -141.105,-0Z"/><path d="M325.794,189.501c-6.548,-0 -12.598,-3.494 -15.872,-9.164c-14.645,-25.366 -55.948,-96.904 -75.878,-131.424c-6.091,-10.55 -19.581,-14.165 -30.132,-8.074c0,0 0,0 0,0c-5.066,2.926 -8.763,7.743 -10.277,13.394c-1.515,5.651 -0.722,11.672 2.203,16.739c16.74,28.995 48.644,84.253 67.877,117.566c3.274,5.671 3.274,12.657 0,18.327c-3.274,5.671 -9.324,9.164 -15.872,9.164c-42.08,-0 -114.154,-0 -141.106,-0c-6.548,-0 -12.599,-3.493 -15.872,-9.164c-11.154,-19.318 -37.082,-64.226 -49.614,-85.933c-4.148,-7.184 -2.953,-16.258 2.912,-22.123c22.158,-22.158 74.969,-74.969 91.965,-91.965c3.437,-3.437 8.098,-5.368 12.959,-5.368c35.904,0 188.669,0 230.419,0c6.548,0 12.598,3.493 15.872,9.164c15.713,27.216 62.555,108.348 87.393,151.37c3.274,5.67 3.274,12.656 0,18.327c-3.274,5.67 -9.324,9.164 -15.872,9.164c-42.08,-0 -114.153,-0 -141.105,-0Z" style="fill:#f8f8f8;"/><path d="M325.794,189.501c-6.548,-0 -12.598,-3.494 -15.872,-9.164l-75.878,-131.424c-6.091,-10.55 -19.581,-14.165 -30.132,-8.074c-5.066,2.925 -8.763,7.743 -10.277,13.394c-1.515,5.651 -0.722,11.672 2.203,16.739l67.877,117.566c3.274,5.671 3.274,12.657 0,18.327c-3.274,5.671 -9.324,9.164 -15.872,9.164l-141.106,-0c-6.548,-0 -12.599,-3.493 -15.872,-9.164l-49.614,-85.933c-4.148,-7.184 -2.953,-16.258 2.912,-22.123l91.965,-91.965c3.437,-3.437 8.098,-5.368 12.959,-5.368l230.419,0c6.548,0 12.598,3.493 15.872,9.164l87.393,151.37c3.274,5.67 3.274,12.656 0,18.327c-3.274,5.67 -9.324,9.164 -15.872,9.164l-141.105,-0Zm-0,-12.5l141.105,-0c2.082,-0 4.006,-1.111 5.047,-2.914c1.041,-1.803 1.041,-4.024 -0,-5.827l-87.393,-151.37c-1.041,-1.803 -2.965,-2.914 -5.047,-2.914l-230.419,0c-1.546,0 -3.028,0.614 -4.121,1.707l-91.964,91.964c-1.865,1.865 -2.245,4.75 -0.926,7.035l49.614,85.933c1.041,1.803 2.965,2.914 5.047,2.914l141.106,-0c2.082,-0 4.006,-1.111 5.047,-2.914c1.041,-1.803 1.041,-4.024 -0,-5.827l-67.877,-117.566c-4.583,-7.938 -5.825,-17.371 -3.452,-26.224c2.372,-8.853 8.164,-16.401 16.101,-20.984c16.529,-9.543 37.665,-3.88 47.208,12.649l75.877,131.424c1.041,1.803 2.965,2.914 5.047,2.914Z"/><path d="M207.069,260.49c6.547,-0 12.598,3.493 15.871,9.163c14.645,25.366 55.948,96.904 75.878,131.424c6.091,10.55 19.582,14.165 30.132,8.074c0,-0 0,-0 0,-0c5.067,-2.925 8.764,-7.743 10.278,-13.394c1.514,-5.651 0.721,-11.672 -2.204,-16.738c-16.74,-28.995 -48.644,-84.254 -67.877,-117.567c-3.274,-5.67 -3.274,-12.657 0,-18.327c3.274,-5.671 9.324,-9.164 15.872,-9.164c42.081,0 114.155,0 141.107,0c6.548,0 12.598,3.493 15.872,9.164c11.153,19.319 37.081,64.227 49.614,85.934c4.147,7.183 2.953,16.257 -2.913,22.123c-22.157,22.157 -74.968,74.968 -91.964,91.964c-3.437,3.437 -8.099,5.368 -12.96,5.368c-35.904,-0 -188.669,-0 -230.419,-0c-6.547,-0 -12.598,-3.493 -15.872,-9.164c-15.713,-27.216 -62.555,-108.348 -87.393,-151.369c-3.274,-5.671 -3.274,-12.657 0,-18.328c3.274,-5.67 9.324,-9.163 15.872,-9.163c42.08,-0 114.154,-0 141.106,-0Z" style="fill:#f8f8f8;"/><path d="M207.069,260.49c6.547,-0 12.598,3.493 15.871,9.163l75.878,131.424c6.091,10.55 19.582,14.165 30.132,8.074c5.067,-2.925 8.764,-7.743 10.278,-13.394c1.514,-5.651 0.721,-11.672 -2.204,-16.738l-67.877,-117.567c-3.274,-5.67 -3.274,-12.657 0,-18.327c3.274,-5.671 9.324,-9.164 15.872,-9.164l141.107,0c6.548,0 12.598,3.493 15.872,9.164l49.614,85.934c4.147,7.183 2.953,16.257 -2.913,22.123l-91.964,91.964c-3.437,3.437 -8.099,5.368 -12.96,5.368l-230.419,-0c-6.547,-0 -12.598,-3.493 -15.872,-9.164l-87.393,-151.369c-3.274,-5.671 -3.274,-12.657 0,-18.328c3.274,-5.67 9.324,-9.163 15.872,-9.163l141.106,-0Zm-0,12.5l-141.106,-0c-2.082,-0 -4.006,1.11 -5.047,2.913c-1.041,1.803 -1.041,4.025 0,5.828l87.394,151.369c1.041,1.803 2.964,2.914 5.046,2.914l230.419,-0c1.546,-0 3.028,-0.614 4.121,-1.707l91.964,-91.964c1.865,-1.865 2.245,-4.75 0.926,-7.034l-49.614,-85.934c-1.04,-1.803 -2.964,-2.914 -5.046,-2.914l-141.107,0c-2.082,0 -4.006,1.111 -5.047,2.914c-1.04,1.803 -1.04,4.024 0,5.827l67.877,117.567c4.583,7.937 5.825,17.37 3.453,26.223c-2.372,8.853 -8.164,16.402 -16.102,20.984c-16.529,9.543 -37.664,3.88 -47.207,-12.649l-75.878,-131.424c-1.041,-1.803 -2.965,-2.913 -5.046,-2.913Z"/></g></g></svg>