<?xml version="1.0" standalone="no"?>
<!DOCTYPE svg PUBLIC "-//W3C//DTD SVG 20010904//EN"
 "http://www.w3.org/TR/2001/REC-SVG-20010904/DTD/svg10.dtd">
<svg version="1.0" xmlns="http://www.w3.org/2000/svg"
 width="700.000000pt" height="700.000000pt" viewBox="0 0 700.000000 700.000000"
 preserveAspectRatio="xMidYMid meet">
<metadata>
Created by potrace 1.14, written by Peter Selinger 2001-2017
</metadata>
<g transform="translate(0.000000,700.000000) scale(0.100000,-0.100000)"
fill="#000000" stroke="none">
<path d="M1845 6436 c-40 -19 -180 -154 -686 -662 -350 -352 -642 -649 -648
-661 -20 -39 -29 -111 -20 -158 6 -32 109 -219 345 -628 184 -320 347 -597
360 -614 14 -18 46 -45 72 -60 l47 -28 985 -3 c1072 -3 1028 -5 1105 53 73 56
108 190 72 276 -8 19 -216 383 -462 809 -246 426 -456 793 -466 815 -28 60
-25 166 5 231 50 107 143 167 261 168 86 1 168 -35 216 -92 17 -20 261 -436
542 -924 282 -487 521 -896 532 -908 11 -12 40 -34 65 -49 l45 -26 1000 0
1000 0 41 22 c52 28 108 90 124 138 7 20 10 65 8 99 -4 61 -10 73 -592 1082
-323 560 -600 1035 -615 1054 -15 19 -51 47 -81 63 l-54 27 -1575 0 -1576 0
-50 -24z"/>
<path d="M3645 3361 c-127 -58 -178 -207 -114 -333 12 -24 222 -389 467 -813
245 -424 451 -790 458 -814 19 -62 17 -121 -6 -183 -28 -74 -70 -122 -142
-157 -88 -44 -170 -44 -258 1 -35 18 -76 49 -92 68 -15 19 -254 429 -531 910
-531 922 -551 953 -633 978 -64 19 -1992 17 -2038 -2 -47 -19 -104 -73 -129
-120 -29 -56 -30 -155 0 -212 77 -146 1180 -2044 1201 -2067 14 -15 46 -37 71
-50 l46 -22 1559 -3 c1400 -2 1566 -1 1615 14 55 15 70 29 703 662 372 371
655 662 665 682 29 60 29 140 0 202 -43 93 -677 1182 -704 1211 -15 15 -45 36
-68 47 -40 20 -62 20 -1036 20 -941 0 -996 -1 -1034 -19z"/>
</g>
</svg>
