<?xml version="1.0" encoding="UTF-8" standalone="no"?>
<!DOCTYPE svg PUBLIC "-//W3C//DTD SVG 1.1//EN" "http://www.w3.org/Graphics/SVG/1.1/DTD/svg11.dtd">
<svg width="100%" height="100%" viewBox="0 0 312 117" version="1.1" xmlns="http://www.w3.org/2000/svg" xmlns:xlink="http://www.w3.org/1999/xlink" xml:space="preserve" xmlns:serif="http://www.serif.com/" style="fill-rule:evenodd;clip-rule:evenodd;stroke-linejoin:round;stroke-miterlimit:2;">
    <g transform="matrix(0.969265,0,0,1.16462,-52.2876,-40.8667)">
        <rect id="Artboard1" x="53.946" y="35.09" width="321.018" height="99.918" style="fill:none;"/>
        <g id="Artboard11" serif:id="Artboard1">
            <g transform="matrix(1.03171,0,0,0.858646,-12.2544,18.4942)">
                <path d="M187.71,123.54C185.87,124.02 184.203,124.407 182.71,124.7C181.242,124.986 179.76,125.196 178.27,125.33C176.607,125.464 174.938,125.511 173.27,125.47C171.39,125.437 169.29,125.32 166.97,125.12L193.85,37.12C195.93,36.7 197.87,36.33 199.67,36.01C201.47,35.69 203.29,35.45 205.13,35.29C206.65,35.157 208.317,35.09 210.13,35.09C211.943,35.09 214.003,35.11 216.31,35.15L242.83,118.63C238.889,119.641 234.878,120.353 230.83,120.76C229.23,120.9 227.63,120.96 226.03,120.94C224.43,120.92 222.71,120.83 220.87,120.67L216.31,104.39C214.211,105.183 212.068,105.85 209.89,106.39C207.898,106.877 205.873,107.212 203.83,107.39C201.954,107.551 200.069,107.574 198.19,107.46C196.177,107.336 194.173,107.089 192.19,106.72L187.71,123.54ZM204.51,58.71L196.51,90.25C197.843,90.53 199.123,90.737 200.35,90.87C201.587,90.994 202.833,90.994 204.07,90.87C205.417,90.752 206.754,90.535 208.07,90.22C209.466,89.893 210.841,89.486 212.19,89L204.51,58.71Z" style="fill:white;fill-rule:nonzero;"/>
            </g>
            <g transform="matrix(1.03171,0,0,0.858646,-12.2544,18.4942)">
                <path d="M267.76,73.82C267.76,90.78 274.88,98.637 289.12,97.39C291.581,97.174 294.013,96.708 296.38,96C299.217,95.114 302.001,94.069 304.72,92.87C307.341,98.338 309.121,104.171 310,110.17C307.68,111.257 305.52,112.167 303.52,112.9C301.636,113.598 299.713,114.186 297.76,114.66C295.92,115.1 294.1,115.46 292.3,115.74C290.5,116.02 288.64,116.243 286.72,116.41C280.685,117.083 274.575,116.493 268.78,114.68C263.862,113.108 259.4,110.362 255.78,106.68C252.215,102.865 249.555,98.295 248,93.31C246.182,87.647 245.29,81.727 245.36,75.78C245.318,69.652 246.25,63.556 248.12,57.72C249.848,52.298 252.56,47.24 256.12,42.8C259.647,38.459 264.032,34.891 269,32.32C274.416,29.549 280.333,27.89 286.4,27.44C290.031,27.105 293.683,27.065 297.32,27.32C301.235,27.674 305.099,28.462 308.84,29.67C308.678,32.969 308.073,36.232 307.04,39.37C306.122,42.223 305.041,45.021 303.8,47.75C302.2,47.33 300.74,46.977 299.42,46.69C298.1,46.403 296.84,46.193 295.64,46.06C294.445,45.923 293.243,45.847 292.04,45.83C290.84,45.83 289.56,45.883 288.2,45.99C281.72,46.557 276.7,49.177 273.14,53.85C269.58,58.523 267.787,65.18 267.76,73.82Z" style="fill:white;fill-rule:nonzero;"/>
            </g>
            <g transform="matrix(1.03171,0,0,0.858646,-12.2544,18.4942)">
                <path d="M366.16,63.17C366.118,66.348 365.756,69.514 365.08,72.62L341.92,74.62L341.92,91.62L372,89.06C372.679,92.013 373.041,95.03 373.08,98.06C373.051,101.279 372.689,104.486 372,107.63L320.64,112.12L320.64,25.87L371.28,21.44C371.6,23.173 371.84,24.793 372,26.3C372.156,27.728 372.236,29.163 372.24,30.6C372.172,33.809 371.837,37.006 371.24,40.16L341.84,42.73L341.84,55.93L365,53.93C365.699,56.963 366.087,60.059 366.16,63.17Z" style="fill:white;fill-rule:nonzero;"/>
            </g>
            <g transform="matrix(1.03171,0,0,0.858646,-12.2544,18.4942)">
                <path d="M167.56,52.83C165.61,49.232 162.675,46.262 159.1,44.27C155.476,42.33 151.495,41.146 147.4,40.79C143.488,40.408 139.551,40.358 135.63,40.64L135.38,40.64L83.86,45.15C81.122,45.431 79.001,47.738 78.95,50.49C78.949,50.525 78.949,50.561 78.949,50.596C78.949,53.026 80.949,55.026 83.379,55.026C83.54,55.026 83.7,55.017 83.86,55L90.64,54.41L111.28,52.6L111.75,52.6C111.764,52.6 111.777,52.6 111.791,52.6C114.204,52.6 116.191,54.586 116.191,57C116.191,57.027 116.19,57.053 116.19,57.08C116.136,59.65 114.275,61.85 111.75,62.33L111.28,62.33L100.98,63.23C98.242,63.511 96.121,65.818 96.07,68.57C96.068,68.623 96.067,68.676 96.067,68.729C96.067,71.159 98.067,73.159 100.497,73.159C100.665,73.159 100.833,73.149 101,73.13L111.3,72.23L111.77,72.23C111.784,72.23 111.797,72.23 111.811,72.23C114.224,72.23 116.211,74.216 116.211,76.63C116.211,76.657 116.21,76.683 116.21,76.71C116.174,79.298 114.303,81.522 111.76,82L111.3,82L90.64,83.87L88,84.1C85.262,84.381 83.141,86.688 83.09,89.44C83.09,89.465 83.089,89.491 83.089,89.516C83.089,91.946 85.089,93.946 87.519,93.946C87.68,93.946 87.84,93.937 88,93.92L90.65,93.69L111.29,91.88L111.75,91.88C111.764,91.88 111.777,91.88 111.791,91.88C114.204,91.88 116.191,93.866 116.191,96.28C116.191,96.307 116.19,96.333 116.19,96.36C116.136,98.93 114.275,101.13 111.75,101.61L111.28,101.61L90.64,103.42L78.11,104.52C75.32,104.807 73.18,107.196 73.2,110C73.2,110.025 73.199,110.051 73.199,110.076C73.199,112.506 75.199,114.506 77.629,114.506C77.79,114.506 77.95,114.497 78.11,114.48L89.66,113.48L111.28,111.59L111.75,111.59C111.767,111.59 111.783,111.59 111.8,111.59C114.214,111.59 116.2,113.576 116.2,115.99C116.2,115.993 116.2,115.997 116.2,116C116.146,118.57 114.285,120.77 111.76,121.25L111.29,121.25L95.87,122.6C93.132,122.881 91.011,125.188 90.96,127.94C90.96,127.965 90.959,127.991 90.959,128.016C90.959,130.446 92.959,132.446 95.389,132.446C95.55,132.446 95.71,132.437 95.87,132.42L121.69,130.16L122.21,130.16C123.65,130.033 125.21,129.817 126.89,129.51C128.57,129.203 130.45,128.76 132.53,128.18L132.53,100.18C133.625,100.306 134.728,100.349 135.83,100.31C137.39,100.31 138.93,100.237 140.45,100.09C144.277,99.757 148.046,98.944 151.67,97.67C155.244,96.43 158.544,94.512 161.39,92.02C164.349,89.363 166.685,86.085 168.23,82.42C170.073,77.853 170.952,72.953 170.81,68.03C170.803,61.71 169.72,56.643 167.56,52.83ZM146,79.44C143.748,81.664 140.76,82.991 137.6,83.17C136.56,83.263 135.56,83.31 134.6,83.31C133.928,83.34 133.256,83.28 132.6,83.13L132.6,58.89C133.234,58.755 133.875,58.658 134.52,58.6L136.2,58.45C137.867,58.298 139.546,58.351 141.2,58.61C142.72,58.837 144.161,59.431 145.4,60.34C146.652,61.305 147.626,62.585 148.22,64.05C148.954,65.962 149.294,68.003 149.22,70.05C149.207,74.123 148.133,77.253 146,79.44Z" style="fill:white;fill-rule:nonzero;"/>
            </g>
            <g transform="matrix(1.03171,0,0,0.858646,-12.2544,18.4942)">
                <path d="M85.16,74.52L75.86,75.33C75.7,75.347 75.54,75.356 75.379,75.356C72.949,75.356 70.949,73.356 70.949,70.926C70.949,70.901 70.95,70.875 70.95,70.85C71.001,68.098 73.122,65.791 75.86,65.51L85.16,64.7C85.32,64.683 85.48,64.674 85.641,64.674C88.071,64.674 90.071,66.674 90.071,69.104C90.071,69.129 90.07,69.155 90.07,69.18C90.019,71.932 87.898,74.239 85.16,74.52Z" style="fill:white;fill-rule:nonzero;"/>
            </g>
            <g transform="matrix(1.03171,0,0,0.858646,-12.2544,18.4942)">
                <path d="M80,133.93L70.7,134.74C70.54,134.757 70.38,134.766 70.219,134.766C67.789,134.766 65.789,132.766 65.789,130.336C65.789,130.311 65.79,130.285 65.79,130.26C65.841,127.508 67.962,125.201 70.7,124.92L80,124.11C80.16,124.093 80.32,124.084 80.481,124.084C82.911,124.084 84.911,126.084 84.911,128.514C84.911,128.539 84.91,128.565 84.91,128.59C84.859,131.342 82.738,133.649 80,133.93Z" style="fill:white;fill-rule:nonzero;"/>
            </g>
        </g>
    </g>
</svg>
