<svg width="76" height="55" viewBox="0 0 76 55" fill="currentColor" xmlns="http://www.w3.org/2000/svg">
<path d="M60.9939 2.89053C60.9908 2.7511 60.9856 2.61166 60.9804 2.4717C60.9746 2.31556 60.9699 2.15993 60.9616 2.00327C60.9454 1.68888 60.925 1.37294 60.8984 1.05594C60.8561 0.547817 60.4524 0.144657 59.9443 0.101834C59.6273 0.0752008 59.3124 0.0553562 58.9985 0.0386449C58.8392 0.0302892 58.6815 0.0255892 58.5238 0.0198447C58.387 0.0151446 58.2496 0.0094001 58.1133 0.00678896C57.8851 0.00156669 57.6585 0 57.4324 0C57.3948 0 57.3566 1.03352e-09 57.319 0.000522229C52.8132 0.0224558 48.6772 1.12853 44.5015 3.40858C44.4278 3.44932 44.3542 3.48744 44.2806 3.52765C44.2545 3.54227 44.2289 3.55481 44.2028 3.56943C44.197 3.57256 44.1923 3.57778 44.1866 3.58092C40.7628 5.48914 37.3449 8.18227 33.8073 11.7198C33.4052 12.122 33.0119 12.5293 32.6229 12.9387L25.7483 13.4615C25.5472 13.4766 25.355 13.5497 25.1947 13.6714L14.4123 21.8772C14.0692 22.1383 13.9214 22.5832 14.041 22.9973C14.16 23.4115 14.5214 23.7097 14.9507 23.7488L25.0678 24.6622L28.2711 27.8656C27.1358 28.1251 25.9791 28.7612 24.9884 29.7513C24.3952 30.3451 23.9189 31.0104 23.5701 31.7374C23.1141 32.703 22.113 35.1893 21.0529 37.8218L20.5354 39.106C20.3787 39.4945 20.4691 39.9389 20.7657 40.235C20.9652 40.4351 21.2326 40.5411 21.5046 40.5411C21.6357 40.5411 21.7684 40.516 21.8953 40.4648L23.2254 39.9285C25.8365 38.8767 28.303 37.8829 29.2707 37.427C29.9914 37.0803 30.6572 36.604 31.2499 36.0113C32.2401 35.0211 32.8756 33.8644 33.1352 32.7291L36.2435 35.8374L37.1569 45.954C37.1955 46.3832 37.4942 46.7446 37.9083 46.8637C38.0039 46.8914 38.101 46.9044 38.1971 46.9044C38.5178 46.9044 38.8275 46.7566 39.0285 46.4924L47.2332 35.7105C47.3549 35.5501 47.428 35.358 47.4432 35.1569L47.9503 28.4854C48.3978 28.0619 48.8412 27.6316 49.2804 27.1929C52.8206 23.6527 55.5153 20.2332 57.424 16.8074C57.4261 16.8037 57.4292 16.8006 57.4313 16.7969C57.4407 16.7802 57.4485 16.764 57.4579 16.7473C57.5452 16.5901 57.6282 16.4329 57.7117 16.2752C59.9088 12.1773 60.9762 8.1102 60.9992 3.69006C60.9997 3.64672 60.9997 3.60389 60.9997 3.56055C61.0007 3.3386 60.9992 3.11509 60.9939 2.89053ZM47.6406 19.5303C46.817 20.3538 45.7214 20.8082 44.5558 20.8082C43.3907 20.8082 42.2951 20.3544 41.471 19.5303C39.7701 17.8289 39.7701 15.0616 41.471 13.3602C43.1729 11.6593 45.9407 11.6603 47.6406 13.3602C48.4647 14.1837 48.919 15.2793 48.919 16.445C48.919 17.6106 48.4652 18.7062 47.6406 19.5303Z" fill="currentColor"/>
<path d="M73.625 51C74.9367 51 76 51.8954 76 53C76 54.1046 74.9367 55 73.625 55L2.37499 55C1.06331 55 -1.15714e-05 54.1046 -1.15714e-05 53C-1.15714e-05 51.8954 1.06331 51 2.37499 51L73.625 51Z" fill="currentColor"/>
</svg>
