<svg width="102" height="65" viewBox="0 0 102 65" fill="none" xmlns="http://www.w3.org/2000/svg">
<path d="M31.9979 28.9941C32.1408 28.9466 32.2996 28.9844 32.4061 29.0908C32.6081 29.2928 32.5381 29.6356 32.2753 29.7471C18.1989 35.6864 7.55687 48.1652 4.15517 63.377C3.94553 64.3144 3.12555 65 2.16493 65C0.921337 64.9999 -0.0219548 63.8724 0.259658 62.6611C4.0588 46.3375 16.1275 34.2958 31.9979 28.9941ZM71.2538 29.8232C71.3872 29.6916 71.5863 29.6485 71.7616 29.7148C86.6298 35.3389 97.8372 47.0401 101.473 62.6631C101.754 63.8735 100.812 65 99.5692 65C98.6093 65 97.7904 64.3147 97.5809 63.3779C94.3368 48.8689 84.5056 36.8463 71.3905 30.6123C71.0852 30.4672 71.0136 30.0611 71.2538 29.8232ZM76.1141 0.00683594C76.2503 0.00944936 76.3876 0.0148347 76.5243 0.0195312C76.682 0.0252745 76.8397 0.0307103 76.9989 0.0390625C77.3128 0.0557738 77.6282 0.0749289 77.9452 0.101562C78.4531 0.144549 78.8569 0.54778 78.8993 1.05566C78.9259 1.37254 78.9456 1.68866 78.9618 2.00293C78.9702 2.1596 78.9756 2.31554 78.9813 2.47168C78.9866 2.61164 78.9909 2.75119 78.994 2.89062C78.9993 3.11515 79.0009 3.33863 78.9999 3.56055C78.9999 3.60389 79.0004 3.64708 78.9999 3.69043C78.9769 8.11042 77.9088 12.1776 75.7118 16.2754C75.6284 16.4329 75.546 16.5901 75.4589 16.7471C75.4495 16.7638 75.4409 16.7802 75.4315 16.7969C75.4294 16.8005 75.4268 16.804 75.4247 16.8076C73.516 20.2334 70.8213 23.6532 67.2811 27.1934C66.842 27.6319 66.3985 28.0619 65.9511 28.4854L65.4433 35.1572C65.428 35.3582 65.3549 35.5507 65.2333 35.7109L57.0292 46.4922C56.8282 46.7563 56.5186 46.9042 56.1981 46.9043C56.1021 46.9043 56.0046 46.8909 55.9091 46.8633C55.495 46.7442 55.1958 46.3833 55.1571 45.9541L54.244 35.8369L51.1356 32.7295C50.876 33.8647 50.2409 35.0217 49.2509 36.0117C48.6582 36.6044 47.992 37.08 47.2714 37.4268C46.3037 37.8827 43.8366 38.8769 41.2255 39.9287L39.8954 40.4648C39.7686 40.5159 39.6357 40.541 39.5048 40.541C39.233 40.5409 38.9659 40.4351 38.7665 40.2354C38.47 39.9393 38.3796 39.4949 38.536 39.1064L39.0536 37.8223C40.1137 35.1898 41.1143 32.703 41.5702 31.7373C41.9191 31.0104 42.3959 30.3447 42.9891 29.751C43.9797 28.761 45.1362 28.1248 46.2714 27.8652L43.0683 24.6621L32.9511 23.749C32.5218 23.7098 32.1609 23.4112 32.0419 22.9971C31.9224 22.583 32.0699 22.138 32.413 21.877L43.1952 13.6719C43.3555 13.5502 43.5479 13.4771 43.7489 13.4619L50.6229 12.9385C51.012 12.5291 51.4054 12.1218 51.8075 11.7197C55.3451 8.18215 58.7637 5.48928 62.1874 3.58105C62.193 3.57794 62.1974 3.57245 62.203 3.56934C62.2291 3.55471 62.255 3.54197 62.2811 3.52734C62.3547 3.48717 62.4283 3.44891 62.5018 3.4082C66.6775 1.12823 70.8136 0.0229624 75.3192 0.000976562C75.3567 0.000456054 75.395 5.64714e-09 75.4325 0C75.6586 0 75.8859 0.00161366 76.1141 0.00683594ZM65.6415 13.3604C63.9416 11.6605 61.1735 11.6595 59.4716 13.3604C57.7707 15.0618 57.7707 17.8289 59.4716 19.5303C60.2956 20.3543 61.3915 20.8086 62.5565 20.8086C63.7221 20.8085 64.818 20.3538 65.6415 19.5303C66.4659 18.7063 66.9197 17.6107 66.9198 16.4453C66.9198 15.2798 66.4654 14.1839 65.6415 13.3604Z" fill="currentColor"/>
</svg>
