<svg width="47" height="47" viewBox="0 0 47 47" fill="none" xmlns="http://www.w3.org/2000/svg">
<path d="M46.9939 2.89053C46.9908 2.7511 46.9856 2.61166 46.9804 2.4717C46.9746 2.31556 46.9699 2.15993 46.9616 2.00327C46.9454 1.68888 46.925 1.37294 46.8984 1.05594C46.8561 0.547817 46.4524 0.144657 45.9443 0.101834C45.6273 0.0752008 45.3124 0.0553562 44.9985 0.0386449C44.8392 0.0302892 44.6815 0.0255892 44.5238 0.0198447C44.387 0.0151446 44.2496 0.0094001 44.1133 0.00678896C43.8851 0.00156669 43.6585 0 43.4324 0C43.3948 0 43.3566 1.03352e-09 43.319 0.000522229C38.8132 0.0224558 34.6772 1.12853 30.5015 3.40858C30.4278 3.44932 30.3542 3.48744 30.2806 3.52765C30.2545 3.54227 30.2289 3.55481 30.2028 3.56943C30.197 3.57256 30.1923 3.57778 30.1866 3.58092C26.7628 5.48914 23.3449 8.18227 19.8073 11.7198C19.4052 12.122 19.0119 12.5293 18.6229 12.9387L11.7483 13.4615C11.5472 13.4766 11.355 13.5497 11.1947 13.6714L0.412265 21.8772C0.0691616 22.1383 -0.0786289 22.5832 0.0409613 22.9973C0.160029 23.4115 0.521411 23.7097 0.950682 23.7488L11.0678 24.6622L14.2711 27.8656C13.1358 28.1251 11.9791 28.7612 10.9884 29.7513C10.3952 30.3451 9.9189 31.0104 9.57005 31.7374C9.11415 32.703 8.11304 35.1893 7.05292 37.8218L6.53539 39.106C6.37872 39.4945 6.46906 39.9389 6.76569 40.235C6.96518 40.4351 7.23256 40.5411 7.50464 40.5411C7.63572 40.5411 7.76837 40.516 7.89527 40.4648L9.22538 39.9285C11.8365 38.8767 14.303 37.8829 15.2707 37.427C15.9914 37.0803 16.6572 36.604 17.2499 36.0113C18.2401 35.0211 18.8756 33.8644 19.1352 32.7291L22.2435 35.8374L23.1569 45.954C23.1955 46.3832 23.4942 46.7446 23.9083 46.8637C24.0039 46.8914 24.101 46.9044 24.1971 46.9044C24.5178 46.9044 24.8275 46.7566 25.0285 46.4924L33.2332 35.7105C33.3549 35.5501 33.428 35.358 33.4432 35.1569L33.9503 28.4854C34.3978 28.0619 34.8412 27.6316 35.2804 27.1929C38.8206 23.6527 41.5153 20.2332 43.424 16.8074C43.4261 16.8037 43.4292 16.8006 43.4313 16.7969C43.4407 16.7802 43.4485 16.764 43.4579 16.7473C43.5452 16.5901 43.6282 16.4329 43.7117 16.2752C45.9088 12.1773 46.9762 8.1102 46.9992 3.69006C46.9997 3.64672 46.9997 3.60389 46.9997 3.56055C47.0007 3.3386 46.9992 3.11509 46.9939 2.89053ZM33.6406 19.5303C32.817 20.3538 31.7214 20.8082 30.5558 20.8082C29.3907 20.8082 28.2951 20.3544 27.471 19.5303C25.7701 17.8289 25.7701 15.0616 27.471 13.3602C29.1729 11.6593 31.9407 11.6603 33.6406 13.3602C34.4647 14.1837 34.919 15.2793 34.919 16.445C34.919 17.6106 34.4652 18.7062 33.6406 19.5303Z" fill="currentColor"/>
</svg>
