<svg width="76" height="62" viewBox="0 0 76 62" fill="none" xmlns="http://www.w3.org/2000/svg">
<path d="M73.83 11.75C74.249 11.75 74.6509 11.5835 74.9472 11.2872C75.2435 10.9909 75.41 10.589 75.41 10.17V1.58C75.41 1.16096 75.2435 0.759078 74.9472 0.46277C74.6509 0.166463 74.249 0 73.83 0H31.92C31.501 0 31.0991 0.166463 30.8028 0.46277C30.5065 0.759078 30.34 1.16096 30.34 1.58V11.75H2.13C1.92299 11.7487 1.71776 11.7883 1.52612 11.8666C1.33449 11.9449 1.16022 12.0604 1.01337 12.2063C0.866518 12.3522 0.749996 12.5257 0.670471 12.7169C0.590947 12.908 0.549984 13.113 0.549988 13.32V22.98C0.549988 23.399 0.716449 23.8009 1.01276 24.0972C1.30906 24.3935 1.71096 24.56 2.13 24.56H30.34V36.56H3C2.34573 36.5626 1.71899 36.8237 1.25635 37.2864C0.793702 37.749 0.532632 38.3757 0.529999 39.03V46.9C0.537893 47.5499 0.801615 48.1704 1.26398 48.6272C1.72634 49.0839 2.35008 49.34 3 49.34H30.32V59.53C30.32 59.737 30.3609 59.942 30.4405 60.1331C30.52 60.3243 30.6365 60.4978 30.7834 60.6437C30.9302 60.7896 31.1045 60.9051 31.2961 60.9834C31.4877 61.0617 31.693 61.1013 31.9 61.1H73.81C74.017 61.1013 74.2222 61.0617 74.4139 60.9834C74.6055 60.9051 74.7798 60.7896 74.9266 60.6437C75.0735 60.4978 75.19 60.3243 75.2695 60.1331C75.3491 59.942 75.39 59.737 75.39 59.53V50.91C75.39 50.703 75.3491 50.498 75.2695 50.3069C75.19 50.1157 75.0735 49.9422 74.9266 49.7963C74.7798 49.6504 74.6055 49.5349 74.4139 49.4566C74.2222 49.3783 74.017 49.3387 73.81 49.34H45.62V36.53H70.32C70.527 36.5313 70.7323 36.4917 70.9239 36.4134C71.1155 36.3351 71.2898 36.2196 71.4366 36.0737C71.5835 35.9278 71.7 35.7543 71.7795 35.5631C71.8591 35.372 71.9 35.167 71.9 34.96V26.15C71.9 25.943 71.8591 25.738 71.7795 25.5469C71.7 25.3557 71.5835 25.1822 71.4366 25.0363C71.2898 24.8904 71.1155 24.7749 70.9239 24.6966C70.7323 24.6183 70.527 24.5787 70.32 24.58H45.62V11.75H73.83Z" fill="#F2F2F2"/>
</svg>
